<?xml version="1.0" encoding="UTF-8" standalone="no"?>
<!-- Created with Inkscape (http://www.inkscape.org/) -->

<svg
   width="16"
   height="16"
   id="svg2"
   version="1.1"
   inkscape:version="1.2 (dc2aeda, 2022-05-15)"
   sodipodi:docname="min_prelight.svg"
   inkscape:export-filename="min_prelight@2.png"
   inkscape:export-xdpi="192"
   inkscape:export-ydpi="192"
   xmlns:inkscape="http://www.inkscape.org/namespaces/inkscape"
   xmlns:sodipodi="http://sodipodi.sourceforge.net/DTD/sodipodi-0.dtd"
   xmlns="http://www.w3.org/2000/svg"
   xmlns:svg="http://www.w3.org/2000/svg"
   xmlns:rdf="http://www.w3.org/1999/02/22-rdf-syntax-ns#"
   xmlns:cc="http://creativecommons.org/ns#"
   xmlns:dc="http://purl.org/dc/elements/1.1/">
  <defs
     id="defs4" />
  <sodipodi:namedview
     id="base"
     pagecolor="#ffffff"
     bordercolor="#666666"
     borderopacity="1.0"
     inkscape:pageopacity="0.0"
     inkscape:pageshadow="2"
     inkscape:zoom="27.554423"
     inkscape:cx="5.3348967"
     inkscape:cy="7.820886"
     inkscape:document-units="px"
     inkscape:current-layer="g4415"
     showgrid="true"
     fit-margin-top="0"
     fit-margin-left="0"
     fit-margin-right="0"
     fit-margin-bottom="0"
     inkscape:window-width="1920"
     inkscape:window-height="1012"
     inkscape:window-x="0"
     inkscape:window-y="0"
     inkscape:window-maximized="1"
     inkscape:showpageshadow="2"
     inkscape:pagecheckerboard="0"
     inkscape:deskcolor="#d1d1d1" />
  <metadata
     id="metadata7">
    <rdf:RDF>
      <cc:Work
         rdf:about="">
        <dc:format>image/svg+xml</dc:format>
        <dc:type
           rdf:resource="http://purl.org/dc/dcmitype/StillImage" />
      </cc:Work>
    </rdf:RDF>
  </metadata>
  <g
     inkscape:label="Layer 1"
     inkscape:groupmode="layer"
     id="layer1"
     transform="translate(-671.14288,-648.57648)">
    <g
       transform="matrix(0.1265625,0,0,-0.1265625,672.07092,663.09636)"
       inkscape:label="ink_ext_XXXXXX"
       id="g4090">
      <g
         transform="scale(0.1,0.1)"
         id="g4092">
        <g
           transform="matrix(9.9999999,0,0,9.9999999,-4.0034923,0.11816995)"
           inkscape:label="ink_ext_XXXXXX"
           id="g4285">
          <g
             transform="scale(0.1,0.1)"
             id="g4287">
            <g
               transform="matrix(10,0,0,10,4.1388913,2.0175489)"
               inkscape:label="ink_ext_XXXXXX"
               id="g4413">
              <g
                 transform="scale(0.1,0.1)"
                 id="g4415">
                <path
                   id="path4417"
                   style="fill:#232831;fill-opacity:1;fill-rule:evenodd;stroke:none;stroke-width:1.14285"
                   d="m 558.63639,-119.07803 c 349.09859,0 632.09911,283.00019 632.09911,632.09876 0,349.09267 -283.00052,632.09337 -632.09911,632.09337 -349.09709,0 -632.098407,-283.0007 -632.098407,-632.09337 0,-349.09857 283.001317,-632.09876 632.098407,-632.09876"
                   inkscape:connector-curvature="0"
                   inkscape:export-xdpi="90.000389"
                   inkscape:export-ydpi="90.000389" />
                <path
                   id="path4419"
                   style="fill:#e5e9f0;fill-opacity:1;fill-rule:evenodd;stroke:none"
                   d="m 559.26149,-8.7878937 c 283.64212,0 513.57761,229.9370537 513.57761,513.5831137 0,283.64081 -229.93549,513.57758 -513.57761,513.57758 -283.64081,0 -513.582859,-229.93677 -513.582859,-513.57758 0,-283.64606 229.942049,-513.5831137 513.582859,-513.5831137"
                   inkscape:connector-curvature="0"
                   inkscape:export-xdpi="90.000389"
                   inkscape:export-ydpi="90.000389" />
                <path
                   id="path4421"
                   style="fill:#232831;fill-opacity:1;fill-rule:evenodd;stroke:none;stroke-width:10.1489"
                   d="m 216.07594,543.95713 h 655.38361 c 25.36671,0 46.11736,-20.7454 46.11736,-46.1174 v -1.2161 c 0,-25.3719 -20.75065,-46.1173 -46.11736,-46.1173 H 216.07594 c -25.36804,0 -46.11737,20.7454 -46.11737,46.1173 v 1.2161 c 0,25.372 20.74933,46.1174 46.11737,46.1174"
                   inkscape:connector-curvature="0" />
              </g>
            </g>
          </g>
        </g>
      </g>
    </g>
  </g>
</svg>
